<svg xmlns="http://www.w3.org/2000/svg" xmlns:xlink="http://www.w3.org/1999/xlink" width="456" height="69.84" viewBox="0 0 456 69.84">
  <defs>
    <linearGradient id="linear-gradient" x1="0.5" y1="1" x2="0.5" gradientUnits="objectBoundingBox">
      <stop offset="0" stop-color="#ffdf63"/>
      <stop offset="1" stop-color="#cc8400"/>
    </linearGradient>
  </defs>
  <g id="グループ_156" data-name="グループ 156" transform="translate(-628 -2160)">
    <path id="パス_79" data-name="パス 79" d="M6.806,0H456l-6.806,16H0Z" transform="translate(628 2204)" fill="#abe5ff"/>
    <path id="パス_104" data-name="パス 104" d="M-152.57-8.48c-.52.16-1.26.32-2.04.48-.9.18-2.54.44-4.34.74l-.62-3.18,4-.64c.6-.08,1.4-.2,1.84-.24l-.48-2.62c-.48.14-1.24.3-1.88.42-.72.14-2.24.38-3.94.66-.16-.9-.28-1.56-.32-1.84-.1-.48-.16-1.16-.22-1.56l-2.82.46c.14.48.28.96.4,1.52.06.32.2.98.36,1.82-1.72.28-3.26.5-3.96.58-.62.08-1.22.12-1.86.14l.54,2.76c.6-.16,1.14-.28,1.84-.42.62-.1,2.16-.36,3.92-.64l.6,3.2c-2.02.32-3.88.62-4.8.76-.64.08-1.54.2-2.08.22l.56,2.68c.46-.12,1.14-.26,2-.42s2.74-.48,4.78-.82c.32,1.68.58,3.06.68,3.64.12.58.18,1.26.28,2.02l2.88-.52c-.18-.64-.38-1.36-.52-1.96-.12-.62-.4-1.96-.72-3.6,1.76-.28,3.38-.54,4.34-.7.76-.12,1.58-.26,2.1-.3Zm16.64,5.12a31.48,31.48,0,0,0,4.26-6.26l-1.6-1.14a3.812,3.812,0,0,1-1.02.32c-.78.18-3.58.72-6.12,1.2l-.54-1.94c-.12-.52-.24-1.04-.32-1.52l-2.68.64a7,7,0,0,1,.56,1.42c.14.44.32,1.08.52,1.86-.92.18-1.64.3-1.92.34-.66.12-1.2.18-1.84.24l.62,2.4c.6-.14,2.06-.44,3.74-.8.72,2.74,1.54,5.84,1.84,6.92a11.725,11.725,0,0,1,.36,1.74l2.72-.66c-.16-.4-.42-1.28-.54-1.64-.32-1.04-1.16-4.12-1.92-6.86,2.16-.46,4.14-.86,4.62-.96a17.622,17.622,0,0,1-2.94,3.6Zm17.76-8.54-2.38.78a33.312,33.312,0,0,1,1.62,4.44l2.4-.84C-116.81-8.44-117.79-11.04-118.17-11.9Zm4.56.56a13.479,13.479,0,0,1-2.54,6.86A13.457,13.457,0,0,1-122.79-.3l2.1,2.14a15.619,15.619,0,0,0,6.7-4.96,16.126,16.126,0,0,0,2.72-5.86c.12-.4.24-.82.48-1.46Zm-9.2.5-2.4.86a40.4,40.4,0,0,1,1.82,4.62l2.44-.92C-121.35-7.4-122.31-9.82-122.81-10.84Zm21.72-5-1.46,2.2c1.32.74,3.4,2.1,4.52,2.88l1.5-2.22C-97.57-13.7-99.77-15.1-101.09-15.84Zm-3.72,14.2,1.5,2.64a24.336,24.336,0,0,0,6.68-2.48,24.149,24.149,0,0,0,7.96-7.18l-1.54-2.72a20.388,20.388,0,0,1-7.78,7.5A22.193,22.193,0,0,1-104.81-1.64Zm.64-9.64-1.46,2.22a52.234,52.234,0,0,1,4.56,2.84l1.46-2.24C-100.63-9.18-102.83-10.56-104.17-11.28Zm31.9,9.1c.3-1.9.82-5.34.98-6.52a5.575,5.575,0,0,1,.2-.84l-1.92-.94a4.745,4.745,0,0,1-1.5.22h-5.12c-.54,0-1.46-.06-1.98-.12v2.64c.58-.04,1.36-.1,2-.1h5.4c-.06,1.12-.5,3.96-.78,5.66h-6.48a19.213,19.213,0,0,1-1.98-.1V.32c.76-.04,1.26-.06,1.98-.06h10.54c.52,0,1.5.04,1.9.06V-2.26c-.52.06-1.44.08-1.96.08Zm22.6-13.78-1.58.66a25.3,25.3,0,0,1,1.56,2.78l1.6-.7C-48.47-13.96-49.17-15.22-49.67-15.96Zm2.36-.9-1.58.66a21.071,21.071,0,0,1,1.6,2.76l1.6-.7A31.281,31.281,0,0,0-47.31-16.86ZM-61.43-6.22A24.1,24.1,0,0,1-64.55-.66l2.8,1.18A27.5,27.5,0,0,0-58.79-5.2a50.009,50.009,0,0,0,1.7-6.02c.08-.44.3-1.42.48-2l-2.92-.6A28.818,28.818,0,0,1-61.43-6.22Zm9.88-.42A61.8,61.8,0,0,1-49.47.42l2.96-.96c-.56-1.98-1.62-5.18-2.34-6.98-.74-1.94-2.12-5.02-2.94-6.56l-2.66.86A56.026,56.026,0,0,1-51.55-6.64Zm17.38-5.26-2.38.78a33.313,33.313,0,0,1,1.62,4.44l2.4-.84C-32.81-8.44-33.79-11.04-34.17-11.9Zm4.56.56a13.479,13.479,0,0,1-2.54,6.86A13.457,13.457,0,0,1-38.79-.3l2.1,2.14a15.619,15.619,0,0,0,6.7-4.96,16.127,16.127,0,0,0,2.72-5.86c.12-.4.24-.82.48-1.46Zm-9.2.5-2.4.86a40.4,40.4,0,0,1,1.82,4.62l2.44-.92C-37.35-7.4-38.31-9.82-38.81-10.84ZM-7.33-13.7a6.413,6.413,0,0,1-1.74.24h-4.02l.06-.1c.24-.44.74-1.34,1.22-2.04l-2.92-.96a9.622,9.622,0,0,1-.9,2.1,17.61,17.61,0,0,1-6.24,6.44l2.24,1.66a22.8,22.8,0,0,0,5.04-4.84h5.62a14.217,14.217,0,0,1-2.84,5.46A15.939,15.939,0,0,1-19.87-.8l2.36,2.12A18.842,18.842,0,0,0-9.43-4.32,20.868,20.868,0,0,0-5.95-11a8.007,8.007,0,0,1,.66-1.44Zm35.7,7.1a24.763,24.763,0,0,1-3.1,5.56L28.07.14a28.452,28.452,0,0,0,2.94-5.72,45.692,45.692,0,0,0,1.7-6.02c.08-.44.32-1.42.48-1.98l-2.92-.62A28.432,28.432,0,0,1,28.37-6.6Zm9.88-.42A63.018,63.018,0,0,1,40.33.04l2.96-.96c-.56-1.98-1.62-5.16-2.32-6.98-.76-1.92-2.14-5-2.96-6.56l-2.66.86A57.546,57.546,0,0,1,38.25-7.02Zm23.64-6.02a1.157,1.157,0,0,1-1.14-1.16,1.157,1.157,0,0,1,1.14-1.16,1.161,1.161,0,0,1,1.16,1.16A1.161,1.161,0,0,1,61.89-13.04Zm-10.64-.22a15.263,15.263,0,0,1,.16-2.08H48.45a16.828,16.828,0,0,1,.16,2.08v10.9c0,1.72,1,2.68,2.74,2.98a21.951,21.951,0,0,0,3.36.24A56.833,56.833,0,0,0,61.83.44V-2.48a33.882,33.882,0,0,1-6.96.7,18.7,18.7,0,0,1-2.32-.12c-.9-.18-1.3-.4-1.3-1.26v-3.7A69.033,69.033,0,0,0,59.09-9.3c.66-.24,1.56-.62,2.34-.94l-.82-1.94a2.3,2.3,0,0,0,1.28.38,2.407,2.407,0,0,0,2.4-2.4,2.407,2.407,0,0,0-2.4-2.4,2.39,2.39,0,0,0-2.38,2.4,2.435,2.435,0,0,0,.58,1.58,11.9,11.9,0,0,1-1.92.92,50.439,50.439,0,0,1-6.92,2.22Zm30.96-.76a6.35,6.35,0,0,1-1.74.22h-4.1l.02-.02c.24-.42.76-1.34,1.24-2.04l-2.9-.9a8.848,8.848,0,0,1-.9,2.1,18.307,18.307,0,0,1-6.38,6.64l2.16,1.66a23.536,23.536,0,0,0,5.28-5.16h5.74a14.568,14.568,0,0,1-2.08,4.26c-1.34-.8-2.7-1.56-3.76-2.1l-1.7,1.9c1.02.58,2.38,1.4,3.74,2.28A16.913,16.913,0,0,1,69.37-.7l2.32,2.02a19.089,19.089,0,0,0,7.38-4.98,23.16,23.16,0,0,1,1.86,1.42l1.82-2.34c-.5-.36-1.18-.82-1.92-1.28a23.021,23.021,0,0,0,2.76-5.48,9.409,9.409,0,0,1,.66-1.42Zm20.1-.76a7.221,7.221,0,0,1-2.08.26H93.19a22.344,22.344,0,0,1-2.36-.14v2.84c.42-.02,1.52-.14,2.36-.14h6.78a15.5,15.5,0,0,1-2.98,4.9,22.659,22.659,0,0,1-8.2,5.74L90.85.84a26.345,26.345,0,0,0,7.52-5.62A45.607,45.607,0,0,1,103.41.88l2.28-1.98a56.223,56.223,0,0,0-5.58-5.72,29.4,29.4,0,0,0,3.14-5.5,9.451,9.451,0,0,1,.7-1.24ZM119.97-1.5h-3.46V-2.8h3.46Zm6.4-5.76H110.33v9h2.32V-5.28h11.32V-.82c0,.24-.08.3-.38.32-.22.02-.84.02-1.52,0V-4.38h-7.64V1h2.08V.1h5.16a6.746,6.746,0,0,1,.46,1.6,7.983,7.983,0,0,0,3.24-.38c.78-.36,1-1,1-2.1ZM121.31-9.7h-6.24v-1.22h6.24Zm-8.5-2.8v4.4h10.92v-4.4Zm6.54-2.78v-1.68h-2.42v1.68h-7.4v2.02h17.48v-2.02Zm19.36,7.1h5.72v1.04h-5.72Zm6.72,2.36a16.254,16.254,0,0,1-1.44,1.1,6.812,6.812,0,0,1-1.36-1.1Zm-2.92,4.64V-3.56a11.319,11.319,0,0,0,4.52,2.16,7.284,7.284,0,0,1,1.3-1.78,14.292,14.292,0,0,1-2.76-.74c.76-.46,1.6-1.02,2.42-1.58l-1.2-.82V-9.5H136.51v3.68h3.06a15.2,15.2,0,0,1-4.54,2.32,10.811,10.811,0,0,1,1.36,1.74,18.836,18.836,0,0,0,3.86-2.14v2.72Zm-7.58-8.94h13.38v-1.64H134.93Zm10.36-3.58h-1.28v-1.38h1.28Zm-3.06,0h-1.28v-1.38h1.28Zm-3.08,0h-1.22v-1.38h1.22Zm8.26-2.72H135.93v4.04h11.48Zm-12.28,3.16a17.38,17.38,0,0,0-3.14-3.18l-1.82,1.36a15.585,15.585,0,0,1,3,3.32Zm-.54,4.08h-4.5V-7h2.24v4.36A23.968,23.968,0,0,1,129.85-.8l1.12,2.36c1.02-.86,1.84-1.62,2.64-2.4,1.2,1.54,2.8,2.12,5.18,2.22,2.44.1,6.68.06,9.16-.06A10.845,10.845,0,0,1,148.69-1c-2.76.22-7.48.28-9.88.18-2.04-.08-3.44-.64-4.22-1.98Zm32.78-6.36h-14.2v2.3h14.2ZM164.71-.82c-.66,0-.78-.12-.78-.88V-7.82h5.28v-2.32H151.37v2.32h4.52c-.24,3.32-.8,6.02-4.96,7.58a6.859,6.859,0,0,1,1.48,1.94c4.78-1.94,5.7-5.36,6.06-9.52h3V-1.7c0,2.34.58,3.1,2.84,3.1h2.4c2.04,0,2.64-1.04,2.88-4.62a6.662,6.662,0,0,1-2.2-1c-.1,2.88-.22,3.4-.88,3.4Z" transform="translate(854.052 2188)"/>
    <path id="パス_105" data-name="パス 105" d="M-64.86,0h7.24l3.24-14.64c.48-2.32.88-4.6,1.28-6.84h.16c.36,2.24.8,4.52,1.28,6.84L-48.34,0h7.36l5.48-29.6h-5.64l-2.32,14.44c-.44,3.08-.88,6.24-1.32,9.44h-.2c-.64-3.2-1.24-6.4-1.88-9.44L-50.3-29.6h-5.04l-3.44,14.44c-.64,3.08-1.28,6.28-1.88,9.44h-.16c-.44-3.16-.92-6.32-1.36-9.44L-64.54-29.6h-6.04ZM-17.9-10.4l-1.48.62A15.431,15.431,0,0,1-17.82-7l1.52-.68A26.211,26.211,0,0,0-17.9-10.4Zm2.24-.92-1.46.68a17.6,17.6,0,0,1,1.64,2.7l1.5-.72A29.916,29.916,0,0,0-15.66-11.32Zm-15.58-2.36.26,2.72c2.3-.5,6.46-.94,8.18-1.12a7.854,7.854,0,0,0-2.92,6.1c0,4.3,3.92,6.54,8.08,6.8l.92-2.74c-3.36-.16-6.4-1.34-6.4-4.6a6.012,6.012,0,0,1,4.18-5.54,20.453,20.453,0,0,1,3.82-.26l-.02-2.56c-1.4.06-3.56.18-5.6.34-3.62.32-6.9.62-8.56.76C-29.68-13.74-30.44-13.7-31.24-13.68ZM7.7-14.36a26.606,26.606,0,0,0-1.6-2.72l-1.58.66a23.6,23.6,0,0,1,1.6,2.76Zm-2.38.94a29.284,29.284,0,0,0-1.58-2.74l-1.6.64a27.488,27.488,0,0,1,1.58,2.78Zm-9.44,1.3c.22-.52.4-1.02.56-1.44.16-.44.42-1.14.64-1.64L-6-15.8a7.878,7.878,0,0,1-.42,2.04,14.286,14.286,0,0,1-1.16,2.74A15.948,15.948,0,0,1-11.04-6.9l2.5,1.5A16.466,16.466,0,0,0-5.3-9.6h4.22C-1.4-5.42-3.06-2.96-5.16-1.36A7.812,7.812,0,0,1-7.06-.24l2.7,1.8C-.74-.72,1.34-4.28,1.7-9.6H4.5c.46,0,1.34.02,2.08.08v-2.74a13.114,13.114,0,0,1-2.08.14Zm23.52.22-2.38.78a33.312,33.312,0,0,1,1.62,4.44l2.4-.84C20.76-8.44,19.78-11.04,19.4-11.9Zm4.56.56a13.479,13.479,0,0,1-2.54,6.86A13.457,13.457,0,0,1,14.78-.3l2.1,2.14a15.619,15.619,0,0,0,6.7-4.96A16.127,16.127,0,0,0,26.3-8.98c.12-.4.24-.82.48-1.46Zm-9.2.5-2.4.86a40.4,40.4,0,0,1,1.82,4.62l2.44-.92C16.22-7.4,15.26-9.82,14.76-10.84ZM47.68-7.36a65.321,65.321,0,0,0-8.36-3.1V-13.4a21.751,21.751,0,0,1,.18-2.42H36.38a13.949,13.949,0,0,1,.2,2.42V-1.92a21.4,21.4,0,0,1-.2,2.78H39.5c-.08-.8-.18-2.2-.18-2.78V-7.58A57.768,57.768,0,0,1,46.54-4.6ZM61.02-16.8V-2.38a2.939,2.939,0,0,0-1.26-.26C58.12-2.64,56.3-1.3,56.3.12c0,.98.94,1.48,1.86,1.48a3.481,3.481,0,0,0,3.66-3.4V-11.84a4.678,4.678,0,0,1,3.66,4.62,10.424,10.424,0,0,1-1.26,4.2h.52A9.487,9.487,0,0,0,66.42-7.9c0-1.88-1.36-3.44-2.58-4.5a5.845,5.845,0,0,1-2.32-4.4Z" transform="translate(855.052 2228)"/>
    <path id="パス_80" data-name="パス 80" d="M748.165,53.365A19.333,19.333,0,1,0,728.832,72.7,19.332,19.332,0,0,0,748.165,53.365Z" transform="translate(322.553 2125.968)" fill="#1a1311"/>
    <path id="パス_81" data-name="パス 81" d="M756.258,63.36A17.437,17.437,0,1,0,738.822,80.8,17.436,17.436,0,0,0,756.258,63.36Z" transform="translate(312.563 2115.973)" fill="#ffec00"/>
    <path id="パス_82" data-name="パス 82" d="M801.015,96.709h-7.406a.544.544,0,0,0-.542.541v9.828h2.919V99.34h4.771a3.871,3.871,0,1,1,0,7.739h-4.771v2.63h5.03a6.5,6.5,0,1,0,0-13Z" transform="translate(252.315 2073.288)" fill="#1a1311"/>
    <path id="パス_83" data-name="パス 83" d="M793.066,183.722a.543.543,0,0,0,.542.541h1.834a.543.543,0,0,0,.542-.541v-5.509h-2.919Z" transform="translate(252.315 2004.783)" fill="#1a1311"/>
    <path id="パス_84" data-name="パス 84" d="M1049.97,53.894a19.214,19.214,0,1,1-19.213-19.215A19.214,19.214,0,0,1,1049.97,53.894Z" transform="translate(-370.542 2125.321)" fill="url(#linear-gradient)"/>
    <path id="パス_85" data-name="パス 85" d="M1054.36,59.339a18.185,18.185,0,1,1-18.183-18.182A18.184,18.184,0,0,1,1054.36,59.339Z" transform="translate(-375.962 2119.876)" fill="#fb0"/>
    <path id="パス_86" data-name="パス 86" d="M1020.666,68.562A18.182,18.182,0,1,1,1051.4,49.121" transform="translate(-375.841 2120.297)" fill="rgba(255,255,255,0.3)"/>
    <path id="パス_106" data-name="パス 106" d="M0,0H16.426V2.085H0Z" transform="translate(652.353 2178.241)" fill="#e28900"/>
    <path id="パス_107" data-name="パス 107" d="M0,0H16.426V2.085H0Z" transform="translate(652.353 2181.732)" fill="#e28900"/>
    <path id="パス_108" data-name="パス 108" d="M0,0H4.019V10.812H0Z" transform="translate(658.556 2179.032)" fill="#e28900"/>
    <path id="パス_87" data-name="パス 87" d="M1089.336,117.034h-4.019l-6.888-10.225h5.014Z" transform="translate(-426.761 2064.696)" fill="#e28900"/>
    <path id="パス_88" data-name="パス 88" d="M1121.613,117.034h4.019l6.889-10.225H1127.5Z" transform="translate(-463.057 2064.696)" fill="#e28900"/>
    <g id="グループ_137" data-name="グループ 137" transform="translate(651.348 2171.18)">
      <rect id="長方形_215" data-name="長方形 215" width="16.425" height="2.086" transform="translate(0.683 6.739)" fill="#fffde9"/>
      <rect id="長方形_216" data-name="長方形 216" width="16.425" height="2.085" transform="translate(0.683 10.231)" fill="#fffde9"/>
      <rect id="長方形_217" data-name="長方形 217" width="4.019" height="10.811" transform="translate(6.886 7.53)" fill="#fffde9"/>
      <path id="パス_89" data-name="パス 89" d="M1087.324,115h-4.019l-6.886-10.225h5.014Z" transform="translate(-1076.419 -104.774)" fill="#fffde9"/>
      <path id="パス_90" data-name="パス 90" d="M1119.6,115h4.019l6.889-10.225h-5.017Z" transform="translate(-1112.709 -104.774)" fill="#fffde9"/>
    </g>
    <g id="パス_92" data-name="パス 92" transform="translate(865.892 2191.262)" fill="#fff">
      <path d="M 6.150594234466553 -2.607576847076416 L 5.797044277191162 -2.961137056350708 L -0.8623456954956055 -9.620527267456055 L -7.521735668182373 -2.961137056350708 L -7.875285625457764 -2.607576847076416 L -8.228836059570313 -2.961137056350708 L -10.19355583190918 -4.925857067108154 L -10.54711532592773 -5.279407024383545 L -10.19355583190918 -5.632956981658936 L -3.534156084060669 -12.2923469543457 L -10.19355583190918 -18.95173645019531 L -10.54711532592773 -19.3052864074707 L -10.19355583190918 -19.65883636474609 L -8.228836059570313 -21.62355613708496 L -7.875285625457764 -21.97711753845215 L -7.521735668182373 -21.62355613708496 L -0.8623456954956055 -14.96415710449219 L 5.797044277191162 -21.62355613708496 L 6.150594234466553 -21.97711753845215 L 6.504144191741943 -21.62355613708496 L 8.468864440917969 -19.65883636474609 L 8.822423934936523 -19.3052864074707 L 8.468864440917969 -18.95173645019531 L 1.809474349021912 -12.2923469543457 L 8.468864440917969 -5.632956981658936 L 8.822423934936523 -5.279407024383545 L 8.468864440917969 -4.925857067108154 L 6.504144191741943 -2.961137056350708 L 6.150594234466553 -2.607576847076416 Z" stroke="none"/>
      <path d="M 6.150594234466553 -3.314687013626099 L 8.115314483642578 -5.279407024383545 L 1.102374315261841 -12.2923469543457 L 8.115314483642578 -19.3052864074707 L 6.150594234466553 -21.27000617980957 L -0.8623456954956055 -14.25705718994141 L -7.875285625457764 -21.27000617980957 L -9.840005874633789 -19.3052864074707 L -2.827055692672729 -12.2923469543457 L -9.840005874633789 -5.279407024383545 L -7.875285625457764 -3.314687013626099 L -0.8623456954956055 -10.32762718200684 L 6.150594234466553 -3.314687013626099 M 6.150594234466553 -1.900476932525635 L 5.443484306335449 -2.607576847076416 L -0.8623456954956055 -8.913407325744629 L -7.16817569732666 -2.607576847076416 L -7.875285625457764 -1.900476932525635 L -8.582395553588867 -2.607576847076416 L -10.54711532592773 -4.572297096252441 L -11.25421524047852 -5.279407024383545 L -10.54711532592773 -5.986516952514648 L -4.241276741027832 -12.2923469543457 L -10.54711532592773 -18.59817695617676 L -11.25421524047852 -19.3052864074707 L -10.54711532592773 -20.01239776611328 L -8.582395553588867 -21.97711753845215 L -7.875285625457764 -22.68421745300293 L -7.16817569732666 -21.97711753845215 L -0.8623456954956055 -15.67127799987793 L 5.443484306335449 -21.97711753845215 L 6.150594234466553 -22.68421745300293 L 6.857704162597656 -21.97711753845215 L 8.822423934936523 -20.01239776611328 L 9.529523849487305 -19.3052864074707 L 8.822423934936523 -18.59817695617676 L 2.516594409942627 -12.2923469543457 L 8.822423934936523 -5.986516952514648 L 9.529523849487305 -5.279407024383545 L 8.822423934936523 -4.572297096252441 L 6.857704162597656 -2.607576847076416 L 6.150594234466553 -1.900476932525635 Z" stroke="none" fill="#2e2e2e"/>
    </g>
  </g>
</svg>
