<svg xmlns="http://www.w3.org/2000/svg" xmlns:xlink="http://www.w3.org/1999/xlink" width="326" height="67.656" viewBox="0 0 326 67.656">
  <defs>
    <linearGradient id="linear-gradient" x1="0.5" y1="1" x2="0.5" gradientUnits="objectBoundingBox">
      <stop offset="0" stop-color="#ffdf63"/>
      <stop offset="1" stop-color="#cc8400"/>
    </linearGradient>
  </defs>
  <g id="グループ_155" data-name="グループ 155" transform="translate(-25 -2156)">
    <path id="パス_93" data-name="パス 93" d="M4.866,0H326l-4.866,16H0Z" transform="translate(25 2203)" fill="#abe5ff"/>
    <path id="パス_80" data-name="パス 80" d="M743.5,51.032a17,17,0,1,0-17,17A17,17,0,0,0,743.5,51.032Z" transform="translate(-423.499 2125.968)" fill="#1a1311"/>
    <path id="パス_81" data-name="パス 81" d="M752.049,61.256a15.332,15.332,0,1,0-15.332,15.332A15.332,15.332,0,0,0,752.049,61.256Z" transform="translate(-433.718 2115.744)" fill="#ffec00"/>
    <g id="グループ_135" data-name="グループ 135" transform="translate(297.72 2168.79)">
      <path id="パス_82" data-name="パス 82" d="M800.055,96.709h-6.513a.478.478,0,0,0-.477.476v8.642h2.566V99.022h4.2a3.4,3.4,0,1,1,0,6.805h-4.2v2.312h4.423a5.716,5.716,0,1,0,0-11.431Z" transform="translate(-793.066 -96.709)" fill="#1a1311"/>
      <path id="パス_83" data-name="パス 83" d="M793.066,183.057a.478.478,0,0,0,.477.476h1.613a.478.478,0,0,0,.477-.476v-4.844h-2.566Z" transform="translate(-793.066 -166.782)" fill="#1a1311"/>
    </g>
    <path id="パス_86" data-name="パス 86" d="M1020.326,65.194a15.988,15.988,0,1,1,27.023-17.1" transform="translate(-730.129 2120.182)" fill="rgba(255,255,255,0.3)"/>
    <path id="パス_84" data-name="パス 84" d="M1045.116,51.467a16.787,16.787,0,1,1-16.787-16.788A16.787,16.787,0,0,1,1045.116,51.467Z" transform="translate(-971.115 2125.321)" fill="url(#linear-gradient)"/>
    <path id="パス_85" data-name="パス 85" d="M1049.767,57.042a15.888,15.888,0,1,1-15.887-15.885A15.888,15.888,0,0,1,1049.767,57.042Z" transform="translate(-976.666 2119.746)" fill="#fb0"/>
    <path id="パス_86-2" data-name="パス 86" d="M1020.31,65.038a15.886,15.886,0,1,1,26.85-16.986" transform="translate(-976.541 2120.177)" fill="rgba(255,255,255,0.3)"/>
    <path id="パス_96" data-name="パス 96" d="M0,0H14.351V1.822H0Z" transform="translate(50.345 2175.937)" fill="#e28900"/>
    <path id="パス_97" data-name="パス 97" d="M0,0H14.351V1.822H0Z" transform="translate(50.345 2178.987)" fill="#e28900"/>
    <path id="パス_98" data-name="パス 98" d="M0,0H3.511V9.446H0Z" transform="translate(55.765 2176.629)" fill="#e28900"/>
    <path id="パス_87" data-name="パス 87" d="M1087.959,115.743h-3.511l-6.018-8.934h4.38Z" transform="translate(-1028.682 2063.243)" fill="#e28900"/>
    <path id="パス_88" data-name="パス 88" d="M1121.613,115.743h3.511l6.019-8.934h-4.383Z" transform="translate(-1065.848 2063.243)" fill="#e28900"/>
    <g id="グループ_137" data-name="グループ 137" transform="translate(49.467 2169.768)">
      <rect id="長方形_215" data-name="長方形 215" width="14.351" height="1.823" transform="translate(0.597 5.888)" fill="#fffde9"/>
      <rect id="長方形_216" data-name="長方形 216" width="14.351" height="1.822" transform="translate(0.597 8.939)" fill="#fffde9"/>
      <rect id="長方形_217" data-name="長方形 217" width="3.511" height="9.446" transform="translate(6.017 6.579)" fill="#fffde9"/>
      <path id="パス_89" data-name="パス 89" d="M1085.947,113.708h-3.511l-6.017-8.933h4.38Z" transform="translate(-1076.419 -104.774)" fill="#fffde9"/>
      <path id="パス_90" data-name="パス 90" d="M1119.6,113.708h3.511l6.019-8.933h-4.384Z" transform="translate(-1113.579 -104.774)" fill="#fffde9"/>
    </g>
    <path id="パス_102" data-name="パス 102" d="M-29.436-5.61A21.048,21.048,0,0,1-32.071-.884l2.38,1a24.184,24.184,0,0,0,2.5-4.862A38.837,38.837,0,0,0-25.747-9.86c.068-.374.272-1.207.408-1.683l-2.482-.527A24.167,24.167,0,0,1-29.436-5.61Zm8.4-.357a53.565,53.565,0,0,1,1.768,6l2.516-.816c-.476-1.683-1.377-4.386-1.972-5.933-.646-1.632-1.819-4.25-2.516-5.576l-2.261.731A48.914,48.914,0,0,1-21.038-5.967ZM-.944-11.084a.983.983,0,0,1-.969-.986.983.983,0,0,1,.969-.986.987.987,0,0,1,.986.986A.987.987,0,0,1-.944-11.084Zm-9.044-.187a12.973,12.973,0,0,1,.136-1.768h-2.516a14.3,14.3,0,0,1,.136,1.768v9.265A2.427,2.427,0,0,0-9.9.527a18.658,18.658,0,0,0,2.856.2A48.308,48.308,0,0,0-.995.374V-2.108a28.8,28.8,0,0,1-5.916.6,15.9,15.9,0,0,1-1.972-.1c-.765-.153-1.1-.34-1.1-1.071V-5.831A58.679,58.679,0,0,0-3.324-7.905c.561-.2,1.326-.527,1.989-.8l-.7-1.649a1.953,1.953,0,0,0,1.088.323A2.046,2.046,0,0,0,1.1-12.07a2.046,2.046,0,0,0-2.04-2.04,2.031,2.031,0,0,0-2.023,2.04,2.07,2.07,0,0,0,.493,1.343,10.118,10.118,0,0,1-1.632.782A42.873,42.873,0,0,1-9.988-8.058Zm26.316-.646a5.4,5.4,0,0,1-1.479.187H11.364l.017-.017c.2-.357.646-1.139,1.054-1.734L9.97-14.246a7.521,7.521,0,0,1-.765,1.785A15.561,15.561,0,0,1,3.782-6.817L5.618-5.406a20.006,20.006,0,0,0,4.488-4.386h4.879a12.383,12.383,0,0,1-1.768,3.621c-1.139-.68-2.3-1.326-3.2-1.785L8.576-6.341c.867.493,2.023,1.19,3.179,1.938A14.376,14.376,0,0,1,5.414-.6L7.386,1.122A16.225,16.225,0,0,0,13.66-3.111,19.686,19.686,0,0,1,15.24-1.9l1.547-1.989c-.425-.306-1-.7-1.632-1.088A19.569,19.569,0,0,0,17.5-9.639a8,8,0,0,1,.561-1.207Zm17.085-.646a6.138,6.138,0,0,1-1.768.221H25.662a18.993,18.993,0,0,1-2.006-.119v2.414c.357-.017,1.292-.119,2.006-.119h5.763A13.172,13.172,0,0,1,28.892-6a19.26,19.26,0,0,1-6.97,4.879L23.673.714a22.393,22.393,0,0,0,6.392-4.777A38.767,38.767,0,0,1,34.349.748L36.287-.935A47.791,47.791,0,0,0,31.544-5.8a24.994,24.994,0,0,0,2.669-4.675,8.032,8.032,0,0,1,.6-1.054ZM-16.405,19.725h-2.941V18.62h2.941Zm5.44-4.9H-24.6v7.65h1.972V16.512h9.622V20.3c0,.2-.068.255-.323.272-.187.017-.714.017-1.292,0v-3.3h-6.494V21.85h1.768v-.765h4.386a5.734,5.734,0,0,1,.391,1.36,6.785,6.785,0,0,0,2.754-.323c.663-.306.85-.85.85-1.785Zm-4.3-2.074h-5.3V11.718h5.3Zm-7.225-2.38v3.74h9.282v-3.74Zm5.559-2.363V6.584h-2.057V8.012h-6.29V9.729h14.858V8.012ZM-.476,14.047H4.386v.884H-.476Zm5.712,2.006a13.815,13.815,0,0,1-1.224.935,5.79,5.79,0,0,1-1.156-.935ZM2.754,20V17.974A9.621,9.621,0,0,0,6.6,19.81,6.192,6.192,0,0,1,7.7,18.3a12.148,12.148,0,0,1-2.346-.629c.646-.391,1.36-.867,2.057-1.343l-1.02-.7v-2.7H-2.346v3.128h2.6A12.92,12.92,0,0,1-3.6,18.025,9.189,9.189,0,0,1-2.448,19.5,16.011,16.011,0,0,0,.833,17.685V20Zm-6.443-7.6H7.684V11H-3.689ZM5.117,9.355H4.029V8.182H5.117Zm-2.6,0H1.428V8.182H2.516Zm-2.618,0H-1.139V8.182H-.1ZM6.919,7.043H-2.839v3.434H6.919ZM-3.519,9.729a14.773,14.773,0,0,0-2.669-2.7L-7.735,8.182A13.247,13.247,0,0,1-5.185,11ZM-3.978,13.2H-7.8V15.05h1.9v3.706A20.373,20.373,0,0,1-8.007,20.32l.952,2.006c.867-.731,1.564-1.377,2.244-2.04,1.02,1.309,2.38,1.8,4.4,1.887,2.074.085,5.678.051,7.786-.051a9.217,9.217,0,0,1,.629-1.972c-2.346.187-6.358.238-8.4.153-1.734-.068-2.924-.544-3.587-1.683ZM23.885,7.791H11.815V9.746h12.07ZM21.624,20.3c-.561,0-.663-.1-.663-.748v-5.2h4.488V12.381H10.285v1.972h3.842c-.2,2.822-.68,5.117-4.216,6.443a5.83,5.83,0,0,1,1.258,1.649c4.063-1.649,4.845-4.556,5.151-8.092h2.55v5.2c0,1.989.493,2.635,2.414,2.635h2.04c1.734,0,2.244-.884,2.448-3.927a5.663,5.663,0,0,1-1.87-.85c-.085,2.448-.187,2.89-.748,2.89Z" transform="translate(243 2171)"/>
    <g id="パス_103" data-name="パス 103" transform="translate(205 2156)" fill="none">
      <path d="M0,0H76V38H0Z" stroke="none"/>
      <path d="M 1 1 L 1 37 L 75 37 L 75 1 L 1 1 M 0 0 L 76 0 L 76 38 L 0 38 L 0 0 Z" stroke="none" fill="rgba(0,0,0,0)"/>
    </g>
    <path id="パス_99" data-name="パス 99" d="M-29.155-7.208c-.442.136-1.071.272-1.734.408-.765.153-2.159.374-3.689.629l-.527-2.7,3.4-.544c.51-.068,1.19-.17,1.564-.2l-.408-2.227c-.408.119-1.054.255-1.6.357-.612.119-1.9.323-3.349.561-.136-.765-.238-1.326-.272-1.564-.085-.408-.136-.986-.187-1.326l-2.4.391c.119.408.238.816.34,1.292.051.272.17.833.306,1.547-1.462.238-2.771.425-3.366.493-.527.068-1.037.1-1.581.119l.459,2.346c.51-.136.969-.238,1.564-.357.527-.085,1.836-.306,3.332-.544l.51,2.72c-1.717.272-3.3.527-4.08.646-.544.068-1.309.17-1.768.187L-42.16-2.7c.391-.1.969-.221,1.7-.357s2.329-.408,4.063-.7c.272,1.428.493,2.6.578,3.094.1.493.153,1.071.238,1.717l2.448-.442c-.153-.544-.323-1.156-.442-1.666-.1-.527-.34-1.666-.612-3.06,1.5-.238,2.873-.459,3.689-.595.646-.1,1.343-.221,1.785-.255Zm14.144,4.352A26.759,26.759,0,0,0-11.39-8.177l-1.36-.969a3.241,3.241,0,0,1-.867.272c-.663.153-3.043.612-5.2,1.02L-19.278-9.5c-.1-.442-.2-.884-.272-1.292l-2.278.544a5.954,5.954,0,0,1,.476,1.207c.119.374.272.918.442,1.581-.782.153-1.394.255-1.632.289-.561.1-1.02.153-1.564.2l.527,2.04c.51-.119,1.751-.374,3.179-.68.612,2.329,1.309,4.964,1.564,5.882a9.967,9.967,0,0,1,.306,1.479l2.312-.561C-16.354.85-16.575.1-16.677-.2c-.272-.884-.986-3.5-1.632-5.831,1.836-.391,3.519-.731,3.927-.816a14.979,14.979,0,0,1-2.5,3.06Zm15.1-7.259-2.023.663A28.315,28.315,0,0,1-.561-5.678l2.04-.714C1.241-7.174.408-9.384.085-10.115Zm3.876.476A11.457,11.457,0,0,1,1.8-3.808,11.439,11.439,0,0,1-3.842-.255l1.785,1.819a13.276,13.276,0,0,0,5.7-4.216A13.708,13.708,0,0,0,5.95-7.633c.1-.34.2-.7.408-1.241Zm-7.82.425-2.04.731A34.338,34.338,0,0,1-4.352-4.556l2.074-.782C-2.618-6.29-3.434-8.347-3.859-9.214ZM14.6-13.464l-1.241,1.87c1.122.629,2.89,1.785,3.842,2.448l1.275-1.887C17.6-11.645,15.725-12.835,14.6-13.464ZM11.441-1.394,12.716.85a20.686,20.686,0,0,0,5.678-2.108,20.526,20.526,0,0,0,6.766-6.1L23.851-9.673A17.33,17.33,0,0,1,17.238-3.3,18.864,18.864,0,0,1,11.441-1.394Zm.544-8.194L10.744-7.7A44.4,44.4,0,0,1,14.62-5.287l1.241-1.9C14.994-7.8,13.124-8.976,11.985-9.588ZM39.1-1.853c.255-1.615.7-4.539.833-5.542a4.739,4.739,0,0,1,.17-.714l-1.632-.8a4.034,4.034,0,0,1-1.275.187H32.844c-.459,0-1.241-.051-1.683-.1v2.244c.493-.034,1.156-.085,1.7-.085h4.59c-.051.952-.425,3.366-.663,4.811H31.28A16.331,16.331,0,0,1,29.6-1.938V.272C30.243.238,30.668.221,31.28.221h8.959c.442,0,1.275.034,1.615.051V-1.921c-.442.051-1.224.068-1.666.068ZM-13.09,7.434l-1.343.561a21.506,21.506,0,0,1,1.326,2.363l1.36-.595C-12.07,9.134-12.665,8.063-13.09,7.434Zm2.006-.765-1.343.561a17.91,17.91,0,0,1,1.36,2.346l1.36-.595A26.589,26.589,0,0,0-11.084,6.669Zm-12,9.044a20.482,20.482,0,0,1-2.652,4.726l2.38,1a23.373,23.373,0,0,0,2.516-4.862A42.508,42.508,0,0,0-19.4,11.463c.068-.374.255-1.207.408-1.7l-2.482-.51A24.5,24.5,0,0,1-23.086,15.713Zm8.4-.357a52.528,52.528,0,0,1,1.768,6l2.516-.816c-.476-1.683-1.377-4.4-1.989-5.933-.629-1.649-1.8-4.267-2.5-5.576l-2.261.731A47.623,47.623,0,0,1-14.688,15.356ZM.085,10.885l-2.023.663A28.315,28.315,0,0,1-.561,15.322l2.04-.714C1.241,13.826.408,11.616.085,10.885Zm3.876.476A11.457,11.457,0,0,1,1.8,17.192a11.439,11.439,0,0,1-5.644,3.553l1.785,1.819a13.276,13.276,0,0,0,5.7-4.216A13.708,13.708,0,0,0,5.95,13.367c.1-.34.2-.7.408-1.241Zm-7.82.425-2.04.731a34.337,34.337,0,0,1,1.547,3.927l2.074-.782C-2.618,14.71-3.434,12.653-3.859,11.786ZM22.9,9.355a5.451,5.451,0,0,1-1.479.2H18l.051-.085c.2-.374.629-1.139,1.037-1.734l-2.482-.816a8.179,8.179,0,0,1-.765,1.785,14.969,14.969,0,0,1-5.3,5.474l1.9,1.411a19.377,19.377,0,0,0,4.284-4.114H21.5a12.085,12.085,0,0,1-2.414,4.641,13.548,13.548,0,0,1-6.851,4.2l2.006,1.8a16.016,16.016,0,0,0,6.868-4.794,17.737,17.737,0,0,0,2.958-5.678,6.806,6.806,0,0,1,.561-1.224Z" transform="translate(122 2171)"/>
    <g id="パス_100" data-name="パス 100" transform="translate(78 2157)" fill="none">
      <path d="M0,0H88V38H0Z" stroke="none"/>
      <path d="M 1 1 L 1 37 L 87 37 L 87 1 L 1 1 M 0 0 L 88 0 L 88 38 L 0 38 L 0 0 Z" stroke="none" fill="rgba(0,0,0,0)"/>
    </g>
    <g id="パス_92" data-name="パス 92" transform="translate(187 2187)" fill="#fff">
      <path d="M 7.74000072479248 -0.8228915333747864 L 7.38645076751709 -1.176451563835144 L 0.03000068664550781 -8.532901763916016 L -7.326449394226074 -1.176451563835144 L -7.679999351501465 -0.8228915333747864 L -8.033549308776855 -1.176451563835144 L -10.19354915618896 -3.336451530456543 L -10.54710960388184 -3.690001487731934 L -10.19354915618896 -4.043551445007324 L -2.837099313735962 -11.40000152587891 L -10.19354915618896 -18.75645065307617 L -10.54710960388184 -19.11000061035156 L -10.19354915618896 -19.46355247497559 L -8.033549308776855 -21.6235523223877 L -7.679999351501465 -21.97711181640625 L -7.326449394226074 -21.6235523223877 L 0.03000068664550781 -14.2671012878418 L 7.38645076751709 -21.6235523223877 L 7.74000072479248 -21.97711181640625 L 8.093550682067871 -21.6235523223877 L 10.25355052947998 -19.46355247497559 L 10.60711097717285 -19.11000061035156 L 10.25355052947998 -18.75645065307617 L 2.897100687026978 -11.40000152587891 L 10.25355052947998 -4.043551445007324 L 10.60711097717285 -3.690001487731934 L 10.25355052947998 -3.336451530456543 L 8.093550682067871 -1.176451563835144 L 7.74000072479248 -0.8228915333747864 Z" stroke="none"/>
      <path d="M 7.74000072479248 -1.530001521110535 L 9.90000057220459 -3.690001487731934 L 2.190000772476196 -11.40000152587891 L 9.90000057220459 -19.11000061035156 L 7.74000072479248 -21.2700023651123 L 0.03000068664550781 -13.56000137329102 L -7.679999351501465 -21.2700023651123 L -9.839999198913574 -19.11000061035156 L -2.129999399185181 -11.40000152587891 L -9.839999198913574 -3.690001487731934 L -7.679999351501465 -1.530001521110535 L 0.03000068664550781 -9.240001678466797 L 7.74000072479248 -1.530001521110535 M 7.74000072479248 -0.115791529417038 L 7.032890796661377 -0.8228915333747864 L 0.03000068664550781 -7.825781345367432 L -6.972889423370361 -0.8228915333747864 L -7.679999351501465 -0.115791529417038 L -8.387109756469727 -0.8228915333747864 L -10.54710960388184 -2.98289155960083 L -11.25420951843262 -3.690001487731934 L -10.54710960388184 -4.397111415863037 L -3.544219255447388 -11.40000152587891 L -10.54710960388184 -18.40289115905762 L -11.25420951843262 -19.11000061035156 L -10.54710960388184 -19.81711196899414 L -8.387109756469727 -21.97711181640625 L -7.679999351501465 -22.68421173095703 L -6.972889423370361 -21.97711181640625 L 0.03000068664550781 -14.97422122955322 L 7.032890796661377 -21.97711181640625 L 7.74000072479248 -22.68421173095703 L 8.447111129760742 -21.97711181640625 L 10.60711097717285 -19.81711196899414 L 11.31421089172363 -19.11000061035156 L 10.60711097717285 -18.40289115905762 L 3.604220628738403 -11.40000152587891 L 10.60711097717285 -4.397111415863037 L 11.31421089172363 -3.690001487731934 L 10.60711097717285 -2.98289155960083 L 8.447111129760742 -0.8228915333747864 L 7.74000072479248 -0.115791529417038 Z" stroke="none" fill="#2e2e2e"/>
    </g>
    <path id="パス_101" data-name="パス 101" d="M-56.445,0h5.43l2.43-10.98c.36-1.74.66-3.45.96-5.13h.12c.27,1.68.6,3.39.96,5.13L-44.055,0h5.52l4.11-22.2h-4.23L-40.4-11.37c-.33,2.31-.66,4.68-.99,7.08h-.15c-.48-2.4-.93-4.8-1.41-7.08l-2.58-10.83h-3.78l-2.58,10.83c-.48,2.31-.96,4.71-1.41,7.08h-.12c-.33-2.37-.69-4.74-1.02-7.08l-1.77-10.83h-4.53Zm37.44-9.36-1.332.558a13.888,13.888,0,0,1,1.4,2.5l1.368-.612A23.59,23.59,0,0,0-19.005-9.36Zm2.016-.828-1.314.612a15.835,15.835,0,0,1,1.476,2.43l1.35-.648A26.925,26.925,0,0,0-16.989-10.188Zm-14.022-2.124.234,2.448c2.07-.45,5.814-.846,7.362-1.008a7.068,7.068,0,0,0-2.628,5.49c0,3.87,3.528,5.886,7.272,6.12l.828-2.466c-3.024-.144-5.76-1.206-5.76-4.14a5.411,5.411,0,0,1,3.762-4.986,18.408,18.408,0,0,1,3.438-.234l-.018-2.3c-1.26.054-3.2.162-5.04.306-3.258.288-6.21.558-7.7.684C-29.607-12.366-30.291-12.33-31.011-12.312Zm35.046-.612a23.946,23.946,0,0,0-1.44-2.448l-1.422.594a21.236,21.236,0,0,1,1.44,2.484Zm-2.142.846A26.355,26.355,0,0,0,.471-14.544l-1.44.576a24.739,24.739,0,0,1,1.422,2.5Zm-8.5,1.17c.2-.468.36-.918.5-1.3.144-.4.378-1.026.576-1.476L-8.3-14.22a7.09,7.09,0,0,1-.378,1.836A12.857,12.857,0,0,1-9.717-9.918,14.353,14.353,0,0,1-12.831-6.21l2.25,1.35A14.82,14.82,0,0,0-7.665-8.64h3.8c-.288,3.762-1.782,5.976-3.672,7.416A7.031,7.031,0,0,1-9.249-.216l2.43,1.62C-3.561-.648-1.689-3.852-1.365-8.64h2.52c.414,0,1.206.018,1.872.072v-2.466a11.8,11.8,0,0,1-1.872.126Zm21.168.2-2.142.7a29.981,29.981,0,0,1,1.458,4l2.16-.756C15.789-7.6,14.907-9.936,14.565-10.71Zm4.1.5a12.131,12.131,0,0,1-2.286,6.174A12.112,12.112,0,0,1,10.407-.27L12.3,1.656a14.057,14.057,0,0,0,6.03-4.464,14.514,14.514,0,0,0,2.448-5.274c.108-.36.216-.738.432-1.314Zm-8.28.45-2.16.774A36.357,36.357,0,0,1,9.867-4.824l2.2-.828C11.7-6.66,10.839-8.838,10.389-9.756ZM40.017-6.624a58.789,58.789,0,0,0-7.524-2.79V-12.06a19.576,19.576,0,0,1,.162-2.178H29.847a12.554,12.554,0,0,1,.18,2.178V-1.728a19.261,19.261,0,0,1-.18,2.5h2.808c-.072-.72-.162-1.98-.162-2.5V-6.822a51.991,51.991,0,0,1,6.5,2.682Zm12.006-8.5V-2.142a2.645,2.645,0,0,0-1.134-.234c-1.476,0-3.114,1.206-3.114,2.484,0,.882.846,1.332,1.674,1.332a3.133,3.133,0,0,0,3.294-3.06v-9.036A4.21,4.21,0,0,1,56.037-6.5,9.382,9.382,0,0,1,54.9-2.718h.468A8.538,8.538,0,0,0,56.883-7.11a5.751,5.751,0,0,0-2.322-4.05,5.26,5.26,0,0,1-2.088-3.96Z" transform="translate(188 2222)"/>
  </g>
</svg>
